# xmcd CD database file
#
# Track frame offsets:
#	150
#	25720
#	50287
#	79610
#	105090
#	117788
#	136707
#	156393
#	176489
#	189715
#	225980
#	251129
#
# Disc length: 3669 seconds
#
# Revision: 0
# Processed by: cddbd v1.5.1PL2 Copyright (c) Steve Scherf et al.
# Submitted via: CDex 1.51
#
DISCID=870e530c
DTITLE=Reg Schwager - Border Town
DYEAR=1997
DGENRE=Jazz
TTITLE0=Firefly
TTITLE1=Border Town
TTITLE2=Bay Street Bounce
TTITLE3=Snowpea
TTITLE4=What News
TTITLE5=Cold Shoulder
TTITLE6=Kiki-San
TTITLE7=They Say It's Spring
TTITLE8=Moment of Truth
TTITLE9=Easy Living
TTITLE10=Mister Lucky
TTITLE11=When I Grow Too Old To Dream
EXTD=YEAR: 1997
EXTT0=
EXTT1=
EXTT2=
EXTT3=
EXTT4=
EXTT5=
EXTT6=
EXTT7=
EXTT8=
EXTT9=
EXTT10=
EXTT11=
PLAYORDER=
